<?xml version="1.0" standalone="no"?><!DOCTYPE svg PUBLIC "-//W3C//DTD SVG 1.1//EN" "http://www.w3.org/Graphics/SVG/1.1/DTD/svg11.dtd"><svg t="1740993133698" class="icon" viewBox="0 0 1024 1024" version="1.1" xmlns="http://www.w3.org/2000/svg" p-id="27694" xmlns:xlink="http://www.w3.org/1999/xlink" width="200" height="200"><path d="M768 1024H256C115.2 1024 0 908.8 0 768V256C0 115.2 115.2 0 256 0h512c140.8 0 256 115.2 256 256v512c0 140.8-115.2 256-256 256z" fill="#FF9A2E" p-id="27695"></path><path d="M296.533333 678.4h64c10.666667 0 21.333333-8.533333 21.333334-21.333333V369.066667c0-10.666667-8.533333-21.333333-21.333334-21.333334h-64c-10.666667 0-21.333333 8.533333-21.333333 21.333334v290.133333c0 8.533333 10.666667 19.2 21.333333 19.2z m209.066667 0h64c10.666667 0 21.333333-12.8 21.333333-29.866667V224c0-17.066667-8.533333-29.866667-21.333333-29.866667h-64c-10.666667 0-21.333333 12.8-21.333333 29.866667v422.4c0 19.2 8.533333 32 21.333333 32z m206.933333 0h64c10.666667 0 21.333333-12.8 21.333334-27.733333V256c0-14.933333-8.533333-27.733333-21.333334-27.733333h-64c-10.666667 0-21.333333 12.8-21.333333 27.733333v392.533333c0 17.066667 10.666667 29.866667 21.333333 29.866667zM206.933333 712.533333h657.066667V746.666667H206.933333v-34.133334z" fill="#FFFFFF" p-id="27696"></path></svg>