<?xml version="1.0" standalone="no"?><!DOCTYPE svg PUBLIC "-//W3C//DTD SVG 1.1//EN" "http://www.w3.org/Graphics/SVG/1.1/DTD/svg11.dtd"><svg t="1740993073497" class="icon" viewBox="0 0 1029 1024" version="1.1" xmlns="http://www.w3.org/2000/svg" p-id="23097" width="200.9765625" height="200" xmlns:xlink="http://www.w3.org/1999/xlink"><path d="M1027.576251 504.251455a13.708964 13.708964 0 0 0-14.901047-6.556461l-59.604191-226.197904h2.086146a11.026775 11.026775 0 0 0 3.874273-14.901048 11.026775 11.026775 0 0 0-9.23865-5.066356h-1.192084a11.324796 11.324796 0 0 0-6.25844 2.086146l-166.295692-165.69965a13.410943 13.410943 0 0 0 1.788126-16.093132 12.814901 12.814901 0 0 0-4.470315-4.470314 14.006985 14.006985 0 0 0-8.940628-3.576252 13.708964 13.708964 0 0 0-13.112922 9.834692l-225.303842-59.604191a9.536671 9.536671 0 0 0 0-6.25844 10.430733 10.430733 0 0 0-9.834692-6.854482 11.026775 11.026775 0 0 0-11.026775 10.728754 7.450524 7.450524 0 0 0 0 2.086147l-226.197904 59.604191a13.708964 13.708964 0 0 0-13.708964-10.430734 13.708964 13.708964 0 0 0-13.410943 12.21886v2.384167a13.410943 13.410943 0 0 0 1.490104 8.344587L89.406286 253.317811a9.536671 9.536671 0 0 0-6.854482-2.682188 10.430733 10.430733 0 0 0-9.238649 5.662398 10.132712 10.132712 0 0 0 0 12.218859 11.026775 11.026775 0 0 0 5.960419 4.470314l-59.604191 225.303842H15.49709a13.410943 13.410943 0 0 0-7.450524 2.682189 14.305006 14.305006 0 0 0-5.066356 19.073341 13.708964 13.708964 0 0 0 15.199068 6.25844l59.604191 226.495925h-2.086147a10.728754 10.728754 0 0 0 7.152503 19.967404 9.536671 9.536671 0 0 0 5.662399-2.086146l164.805587 164.507567a13.410943 13.410943 0 0 0-2.086146 16.093131 14.603027 14.603027 0 0 0 7.748545 6.25844 15.199069 15.199069 0 0 0 6.556461 1.788126 13.708964 13.708964 0 0 0 13.112922-9.834692l225.601862 59.604191a8.940629 8.940629 0 0 0 0 4.768336 10.728754 10.728754 0 0 0 10.430734 8.344586 10.430733 10.430733 0 0 0 10.430733-10.728754 4.470314 4.470314 0 0 0 0-2.086147l225.601863-59.604191a13.708964 13.708964 0 0 0 13.112922 9.834692 13.410943 13.410943 0 0 0 13.410943-11.026776 13.410943 13.410943 0 0 0 0-11.622817v-1.490105l165.401629-165.997671a10.728754 10.728754 0 0 0 6.556461 2.682188 11.324796 11.324796 0 0 0 8.344587-4.172293 10.728754 10.728754 0 0 0 1.788126-12.814901 10.430733 10.430733 0 0 0-5.960419-4.768335l59.604191-225.601863h1.788125a11.920838 11.920838 0 0 0 6.854482-2.384168 14.006985 14.006985 0 0 0 5.960419-18.179278zM256 932.805588v1.490105l-163.911525-164.507567a12.51688 12.51688 0 0 0 2.682189-7.152503 10.728754 10.728754 0 0 0 0-3.278231l89.406286-29.802095 77.187427 202.654249a10.430733 10.430733 0 0 0-5.364377 0.596042z m-173.448196-180.89872H80.465658l-59.604191-226.793946v-1.490105h1.788126l104.605355 119.208382-42.915018 109.37369z m676.209546-661.606519h1.490105l-6.854482 4.470315-62.286379 45.597206 63.180442-53.04773h1.788126z m189.839348 181.196741l59.604191 226.793946h-3.27823l-72.717113-77.783469-73.015134-78.379511 23.841676-21.457509 56.623982-50.961583a10.430733 10.430733 0 0 0 8.940628 1.788126z m-4.470314 479.813737l-67.054715-109.07567 130.235158-121.592549a11.622817 11.622817 0 0 0 5.066356 3.27823l-59.604191 225.601863a11.920838 11.920838 0 0 0-10.132713 2.384167z m-1.788126 1.490104a10.430733 10.430733 0 0 0-3.576251 5.662398l-104.903376-25.331781 19.371362-59.604191a9.23865 9.23865 0 0 0 6.854482 0 6.556461 6.556461 0 0 0 2.98021-2.682188l41.722933 43.213038 1.788126 2.086147 2.980209 3.27823 5.066357 5.364378 27.417927 29.802095z m-1.788125 15.49709l-165.40163 165.40163-5.364377-2.086147 29.802095-95.664726 31.888242-100.731083 74.505239 17.881257 29.802095 7.450524v1.490105a10.728754 10.728754 0 0 0 3.278231 6.854482z m-137.685681-52.451688l2.384167-22.947614 40.53085-24.437718a9.834692 9.834692 0 0 0 5.662398 4.172294l-19.371362 59.60419-20.563446-5.066356v-1.788126a10.728754 10.728754 0 0 0-10.132712-8.940628z m-154.970897 72.419092l47.981374-29.802096 63.478463 172.256112-61.392316-63.180442-55.133877-64.372526a13.112922 13.112922 0 0 0 3.576252-14.305006z m0 0v-2.086147a15.199069 15.199069 0 0 0-5.662398-5.066356l29.802096-86.128056 23.841676 64.372526z m-134.705471 213.084982l-36.954599-124.572759h1.788126a11.026775 11.026775 0 0 0 4.470314-13.112922l54.537835-25.927823a14.006985 14.006985 0 0 0 10.430734 12.21886l-29.802096 152.288707a9.834692 9.834692 0 0 0-5.066356 0z m-50.663562-131.427241l-44.405123 16.987195-46.193248-59.604191a10.728754 10.728754 0 0 0 3.576252-7.748545H429.150175l44.405122 4.172294v26.523864a9.834692 9.834692 0 0 0-5.066356 0 10.728754 10.728754 0 0 0-7.748545 19.073342z m-186.561118 66.160652l33.080326-42.915017 52.451688-62.882421h3.27823a10.430733 10.430733 0 0 0 5.96042-2.086147l45.895227 59.604191-139.771828 51.259604a16.093132 16.093132 0 0 0-2.682189-3.576252z m-9.834692-238.416763a12.814901 12.814901 0 0 0-3.27823-3.576252c5.066356-10.430733 12.814901-25.927823 22.053551-43.511059l24.139697 52.749709-41.424913 4.470314a15.199069 15.199069 0 0 0-4.470314-9.834691z m-25.331781 10.728754l-56.32596 19.073341-16.093132-38.742724a10.728754 10.728754 0 0 0 5.960419-9.53667 11.026775 11.026775 0 0 0-3.576251-7.748545l44.703143-45.895227c11.920838 26.225844 23.543655 51.557625 29.802096 66.160652a13.708964 13.708964 0 0 0-6.25844 16.987194z m-149.010477 46.78929l64.074505-66.458673a11.026775 11.026775 0 0 0 7.748545 3.576252 8.046566 8.046566 0 0 0 3.576252 0l11.622817 29.802095 2.682188 7.450524-89.406286 29.802095a5.364377 5.364377 0 0 0-1.788126-3.874272z m0-500.973225l165.103609-164.507567 3.27823 2.98021-61.094295 182.090803-105.797439-12.814901a9.834692 9.834692 0 0 0-2.682189-7.450524z m2.384168 8.642608l89.406286 10.728754 17.583236 2.384168-2.086146 5.960419a11.622817 11.622817 0 0 0-8.940629 0 11.324796 11.324796 0 0 0-4.470314 5.364377l-24.437719-6.25844-66.756693-16.987194z m190.137369 33.974389l-11.026776 13.410943-59.604191-14.603027-10.132712-2.384168a10.430733 10.430733 0 0 0 0-6.556461 9.536671 9.536671 0 0 0-4.470314-3.874272l2.086146-6.556461 78.677532 9.53667a13.410943 13.410943 0 0 0 3.278231 11.324797z m149.010477-157.653085l-110.565774 116.526193-8.940629 9.536671-38.742724-170.766007V89.406286a12.218859 12.218859 0 0 0 3.874273-6.854482l9.53667 2.98021 142.752037 44.405122v2.384168a9.536671 9.536671 0 0 0 1.788126 7.152503z m0 0a9.536671 9.536671 0 0 0 6.854482 2.682188 11.026775 11.026775 0 0 0 7.450524-2.980209l-13.708964 27.417928a10.728754 10.728754 0 0 0-13.410943 15.199068 7.152503 7.152503 0 0 0 2.384168 2.682189l-68.54482 89.406286-39.934808 6.25844-3.576251-16.689173zM515.874272 21.457509l23.841677 112.651921 13.410943 63.478463-48.875437-8.344587-53.643772-49.471478 59.604191-119.208382a8.344587 8.344587 0 0 0 6.556461 2.086147z m93.57858 177.322468l56.325961-39.934808-54.239814 45.597206a19.073341 19.073341 0 0 0-1.192084-4.470314z m186.859139 63.776484a10.728754 10.728754 0 0 0 6.25844 4.768335l-4.768336 22.053551-157.951105-29.802096-33.080326-41.722933a12.218859 12.218859 0 0 0 4.768335-6.854482l184.474971 45.299185a12.814901 12.814901 0 0 0 1.192084 7.450524z m203.250291 250.039581l-77.187428 14.603027-92.982537 17.881257a13.112922 13.112922 0 0 0-9.834692-10.132712l-2.086147-95.664727 182.984867 66.160652a11.622817 11.622817 0 0 0 0 5.364377v2.98021z m-190.137369 23.841676l-9.834692-26.523865-25.629802-74.207217h2.086147a13.410943 13.410943 0 0 0 5.662398-6.556461l34.570431 12.51688 2.086146 95.664726h-2.086146a13.410943 13.410943 0 0 0-5.960419 0.298021z m33.080326 130.235157l-39.636787 24.139698 5.960419-59.604191 34.868451 24.139697a11.026775 11.026775 0 0 0-0.29802 12.51688z m-33.676368-37.252619l6.556461-67.352736 29.802095 89.406287-2.086146 1.788125z m-150.500582 7.152503a13.112922 13.112922 0 0 0 2.086146-6.556461 11.920838 11.920838 0 0 0-1.788125-6.556461l40.232829-19.073341-16.689174 47.385332z m23.543655 16.391153l-12.814901 36.358556-16.987194-46.491269a15.49709 15.49709 0 0 0 5.662398-5.066356z m-23.841676-29.802096a14.305006 14.305006 0 0 0-11.622817-6.25844 13.708964 13.708964 0 0 0-9.536671 3.874272l-69.438882-64.372526-20.563446-76.293364 69.438882 17.583236 24.437718 16.987195 64.372527 44.405122a10.430733 10.430733 0 0 0-2.086147 13.112922 11.324796 11.324796 0 0 0 6.25844 5.066356l-8.940629 25.927823z m-37.25262 174.342259l-38.742724 17.583236-19.669383 8.940628 28.610012-61.094295 32.186263 22.351571a13.708964 13.708964 0 0 0-2.384168 12.21886z m-59.60419 27.417927a13.410943 13.410943 0 0 0-8.940629-3.576251 15.795111 15.795111 0 0 0-5.066356 0c-14.305006-21.457509-42.915017-66.756694-68.246799-107.883586v-14.901047a13.112922 13.112922 0 0 0 6.556461-1.490105 14.603027 14.603027 0 0 0 4.768335-4.768335l98.942957 68.544819z m-193.117579-15.199068l66.458673-119.208382 25.331781-1.788126 6.556461 10.430733-94.770664 113.844005a12.218859 12.218859 0 0 0-4.172293-3.27823z m-123.380675-214.277067l-28.311991 29.802096c-10.728754-23.841676-21.159488-46.78929-28.311991-63.776485l55.431898 17.583237a13.410943 13.410943 0 0 0-2.682189 7.450524 14.305006 14.305006 0 0 0 3.278231 8.940628z m0-18.179278l-56.623982-17.881257c-2.98021-6.854482-5.662398-12.814901-7.152503-17.285216a10.728754 10.728754 0 0 0 3.278231-8.642607h49.769499l16.987195 39.934808a15.199069 15.199069 0 0 0-7.450524 3.874272zM29.206054 509.913853l20.265424 6.25844-20.563445-2.682188a7.152503 7.152503 0 0 0 0-2.384168l0.298021-1.192084z m0-1.490104a22.351572 22.351572 0 0 0-1.788126-3.874273l146.328289-90.002328a7.152503 7.152503 0 0 0 0 2.384167 10.728754 10.728754 0 0 0 10.728754 10.728755h3.576251l21.457509 50.663562-33.378347 46.78929a10.430733 10.430733 0 0 0-14.006985 7.748545l-105.201397-14.006985z m279.245634-178.812573l-11.622817 7.152503-93.280559 58.114086 68.842841-82.849826 34.57043 8.642608a11.920838 11.920838 0 0 0 1.192084 10.430734z m0 0l2.682189 2.980209-64.968569 91.194412-51.855646-7.748544a10.430733 10.430733 0 0 0-3.27823-7.748545l8.940629-11.026776z m-2.682189-45.001164l9.23865-1.490105 5.364377 24.735739h-4.470314l-14.006985-14.006985a13.112922 13.112922 0 0 0 3.874272-9.238649z m10.430734-1.788126l38.444703-5.960419-25.927823 34.27241a11.920838 11.920838 0 0 0-6.854482-2.98021z m15.79511 31.888242a5.960419 5.960419 0 0 0-2.384167-2.384168l27.119907-35.762514 106.39348-16.391153 42.020955 106.989523-20.265425 42.915018c-49.471478-28.01397-121.592549-68.246799-149.010477-82.551805l-2.98021-3.27823a13.410943 13.410943 0 0 0-0.298021-7.748545z m104.605355-128.745052a9.834692 9.834692 0 0 0 5.364378-3.874273l62.286379 10.728755 14.006985 12.814901L553.722934 238.416764a13.112922 13.112922 0 0 0-3.278231 8.940628l-86.426077 13.410943-29.802095-72.419092z m0-18.4773l13.708964-27.119906 51.259605 49.471478-59.604191-10.132712a10.132712 10.132712 0 0 0 0-6.556461 9.834692 9.834692 0 0 0-4.768336-3.874273z m138.281723 68.54482l17.881258-15.199069-7.450524 26.821886h-7.748545v-1.788125a12.814901 12.814901 0 0 0-2.086147-8.046566z m2.384168 11.324796l7.748545 1.490105-4.172293 15.199069-7.748545-9.536671a12.51688 12.51688 0 0 0 4.768335-5.364377z m226.495926 47.981374l-6.556461 2.98021 1.788125-8.046566h4.470315a8.642608 8.642608 0 0 0 0.894062 6.854482z m-22.351572 119.208382l-1.490105-1.490105 35.166473-31.888242 1.490105 56.922002-33.974389-12.218859a14.901048 14.901048 0 0 0-0.596042-10.728754z m-2.384168-2.384168a14.603027 14.603027 0 0 0-5.960419-3.874272l11.324797-47.385332 13.112922-59.604191L804.656577 298.020955a10.728754 10.728754 0 0 0 9.536671 6.854482v75.10128z m-50.663562 112.949942l-112.055879-29.802095-71.227008-49.173458a14.305006 14.305006 0 0 0 2.086147-6.854482l163.017462-11.324796h3.874272l37.25262 43.213038z m22.351572-53.941793l58.114086 68.54482a12.51688 12.51688 0 0 0-4.768335 6.25844l-73.611176-18.77532z m-22.649593 55.133877l-11.920838 29.802095a10.430733 10.430733 0 0 0-9.834692 0l-82.551804-54.239813-2.98021-2.682189 95.068685 24.139697z m-94.770663 106.09546l-42.318976 8.046565-22.947614-81.35972 67.948778 63.180442a13.112922 13.112922 0 0 0-3.27823 8.940629s1.192084 0.894063 1.192083 1.788126z m-42.318976 8.344586l-106.393481 18.179279 33.676368-147.520373 47.087311 43.511059 1.788126 1.788126z m-114.440047 72.121071c-2.98021-4.470314-5.662398-8.940629-8.344586-13.410943l1.490104-1.788125a15.795111 15.795111 0 0 0 7.152503 2.384167z m-27.417927-59.604191l4.768335 5.96042a10.132712 10.132712 0 0 0-5.066356-2.384168z m8.940628 14.006985h1.788126l9.23865 11.026776a13.112922 13.112922 0 0 0-4.470315 10.728754h-3.576251l-7.450524-11.920838a10.430733 10.430733 0 0 0 4.172293-10.132713z m-2.980209-6.854482l3.576251 4.172294a8.344587 8.344587 0 0 0-3.874272-5.662398z m9.238649 29.802096a15.49709 15.49709 0 0 0 1.788126 4.768335 25.927823 25.927823 0 0 0 2.682189 3.278231l-1.490105 1.490104c-1.788126-3.278231-3.874272-6.25844-5.662398-9.238649z m6.854482-14.305006l-8.642607-10.430733 22.05355-3.874273-2.682188 11.622817a12.814901 12.814901 0 0 0-10.132713 1.192084z m-11.026775-10.430733l-11.026775-12.814901 8.642607-119.208382 4.172294-56.623982 11.622817-5.662398 43.80908 38.742724-18.477299 80.763679-15.795111 68.246799z m-248.847497-185.965076l36.358556-50.961583 86.724098 13.112922c4.172293 31.590221 8.046566 62.28638 10.430733 80.167637h-3.27823a11.622817 11.622817 0 0 0-5.364377 8.940628H233.946449z m22.05355 51.855646H183.580908a5.662398 5.662398 0 0 0 0-2.980209 11.026775 11.026775 0 0 0-4.470314-3.874273l30.994179-44.405122z m-22.05355-54.835856l-13.708964-32.782305-7.450524-17.285215a11.026775 11.026775 0 0 0 5.662398-7.450524l28.01397 4.470314 22.947613 3.278231z m135.301513 43.809081c-2.682189-21.159488-6.556461-50.663562-10.132712-79.869616l112.949942 16.987194v1.490105a14.305006 14.305006 0 0 0 2.682188 7.748545l-96.85681 57.220023a9.834692 9.834692 0 0 0-9.536671-3.576251z m105.797439-52.749709a14.305006 14.305006 0 0 0 8.940629 5.066356v2.384168l-104.307334 50.663562z m75.697323-39.636787l-7.748545 3.576251-32.782305-18.477299 20.265425-43.213038 22.351571 56.922002z m123.976717-59.604191l-111.459837 52.749709 42.318975-153.480792 72.419092 93.280559a9.834692 9.834692 0 0 0-4.470314 8.344587s-0.298021 0-0.298021 0.298021z m0 0a10.430733 10.430733 0 0 0 17.583236 5.364377l43.213038 50.06752-164.209546 13.410943a17.881257 17.881257 0 0 0-1.788125-6.556461 12.218859 12.218859 0 0 0-7.748545-6.25844v-2.682188z m18.477299-8.642608l37.252619-17.583236 53.941793 67.054715a14.901048 14.901048 0 0 0-5.066356 11.026775l-42.318976 3.576251-21.75553-25.331781-22.05355-25.629802a10.728754 10.728754 0 0 0 2.384167-6.854482 9.536671 9.536671 0 0 0-2.980209-5.066356z m-198.779977 108.181607a15.199069 15.199069 0 0 0 2.682189-5.364377l6.854482 1.788125-8.642608 4.470315z m48.875437-22.649593h-2.384168l-35.166473 16.987195-8.344586-2.086147v-2.384168a11.026775 11.026775 0 0 0 0-4.470314l43.80908-20.861467h2.384168a13.410943 13.410943 0 0 0 0.596042 12.814901z m-37.25262 19.669383l41.126892 10.430734-6.854482 34.57043-43.213038-39.934808z m1.788126 0l36.060536-17.583236a13.410943 13.410943 0 0 0 8.344586 6.25844l-4.768335 20.861467z m35.762515-29.802095h-1.490105l3.27823-1.788126z m-4.470315 0l-42.616996 20.265425a17.285215 17.285215 0 0 0-5.066356-5.364378l15.79511-32.782305z m-44.703143 34.272409l-3.27823 1.490105 2.980209-2.086146z m-3.27823-22.351571a13.112922 13.112922 0 0 0-6.556461-2.086147 12.51688 12.51688 0 0 0-9.23865 3.874273l-95.366705-96.856811-18.179279-18.77532c27.417928 14.901048 91.194412 50.365541 145.136205 81.0617z m-2.384168 25.03376l-4.768335 2.384168a17.285215 17.285215 0 0 0 5.066356-2.384168z m-109.969732 54.835856l103.711292-50.365542-12.51688 173.150175-94.770664-109.969732a10.430733 10.430733 0 0 0 3.874273-12.814901z m162.42142-16.987195l5.662398-23.841676 2.384168-11.026775 18.77532 4.768335 21.159488 74.505239z m8.344587-36.060535l4.768335-20.861467a13.112922 13.112922 0 0 0 5.960419 0l7.450524 25.927823z m7.450524-48.279395l3.27823-1.490105v1.788126z m4.470314 26.523865h2.384168a18.77532 18.77532 0 0 0 3.576251-3.27823l68.54482 47.385331-67.054715-16.093131z m176.130384-25.331781l41.126892-3.278231a14.603027 14.603027 0 0 0 1.788126 5.066357 13.410943 13.410943 0 0 0 6.556461 5.662398l-13.410943 34.570431z m47.981374-17.285215l-53.643772-67.054715 86.724098-41.126892-23.841677 106.09546a16.987194 16.987194 0 0 0-9.238649 2.682189z m33.378347-108.181607l-89.406287 42.020955-65.56461-81.0617 101.327125 19.669383 55.133876 10.728754z m-89.406287 42.616997l-37.55064 16.987194a10.728754 10.728754 0 0 0-7.748545-3.27823 10.132712 10.132712 0 0 0-5.066356 1.490104l-32.782305-40.82887-41.424913-51.259605 4.470315-16.093131 53.34575 10.430733z m-125.168801-75.995344l-42.915017 155.566938-8.344587 4.172294-18.477299-47.087311-4.172293-11.026775 23.543655-50.365542 29.802096-59.604191a14.305006 14.305006 0 0 0 5.364377 0 15.199069 15.199069 0 0 0 8.046565-2.682188z m-74.803259 99.83702L465.806752 262.25844l85.830035-13.410943a13.112922 13.112922 0 0 0 7.152503 9.834692z m48.577415-131.12922l-47.981373-44.107101 47.385331 8.344586 6.258441 31.888243a14.006985 14.006985 0 0 0-6.258441 3.27823z m-91.492433 24.735739l-105.201397 16.093132 8.940629-11.622817 59.604191-77.78347a11.026775 11.026775 0 0 0 9.238649 0z m-12.218859 188.945285a13.112922 13.112922 0 0 0-2.980209 6.556461l-113.545984-17.285215c-5.364377-42.020955-10.430733-84.33993-11.920838-102.221187a8.642608 8.642608 0 0 0 3.874272-1.490105 11.622817 11.622817 0 0 0 5.066356-5.662398l2.98021 1.490104z m-121.294528-37.848661l3.576251 27.119907-86.128056-13.112922 64.968568-90.896391a12.51688 12.51688 0 0 0 9.23865 2.086147c0.596042 14.006985 4.470314 42.915017 8.344587 74.207217z m-139.771828-3.576251l-3.576252-1.788126 10.430734-6.25844z m-29.802096 125.466822a13.410943 13.410943 0 0 0 0 5.960419 10.728754 10.728754 0 0 0 4.768336 4.172293l-3.278231 8.344587-98.346915-32.484284z m7.152503 10.728754a10.430733 10.430733 0 0 0 8.940629 0s1.788126 4.172293 2.682189 6.854482v1.490105l2.980209 7.450524-19.371362-5.96042z m65.266589-12.218859h101.625146a9.536671 9.536671 0 0 0 0 2.682188c-29.802095 18.477299-59.604191 35.166473-71.525029 43.213039a14.305006 14.305006 0 0 0-11.026775-5.662398h-2.98021z m32.782305 58.114086l37.550641 16.689173c-7.152503 13.708964-14.603027 27.417928-21.159488 40.232829l-22.053551-48.577415a12.814901 12.814901 0 0 0 6.556461-8.344587z m0 0a14.901048 14.901048 0 0 0 0-3.874272 14.603027 14.603027 0 0 0-2.384167-7.152503c12.218859-7.748545 39.338766-24.139697 71.227008-43.213039a9.834692 9.834692 0 0 0 3.874272 3.874273c-7.152503 13.112922-21.159488 39.040745-35.762514 66.756693z m75.995344-51.259604a10.430733 10.430733 0 0 0 10.430733 0l94.770664 112.055879v4.768335a10.728754 10.728754 0 0 0-9.536671 5.960419c-34.27241-14.006985-90.896391-37.848661-131.12922-55.133877 12.218859-23.543655 24.735739-47.385332 35.464494-67.650756z m99.83702 136.791618a8.642608 8.642608 0 0 0 4.768335 0 10.132712 10.132712 0 0 0 5.066356-1.490105q2.682189 5.066356 7.152503 11.622817l-24.735739 2.384168z m24.735739 23.841676c2.682189 4.768335 5.960419 9.536671 8.940629 14.603027l-1.490105 42.915018-2.384168 70.034924c-40.53085-3.874272-80.465658-8.046566-98.346915-10.728754a17.583236 17.583236 0 0 0 0-2.384168z m7.152503 107.585565l3.27823-89.406286c22.947614 36.656577 52.451688 83.743888 67.650757 106.095459a13.708964 13.708964 0 0 0-7.450524 10.728755c-19.371362 0-42.020955-3.576251-64.372526-5.960419z m16.093131-116.228172a13.708964 13.708964 0 0 0 0-13.112922 14.305006 14.305006 0 0 0-8.344586-6.25844l2.682188-12.21886 106.691502-18.179278 19.669383 70.034925-21.75553 48.875436z m101.029104-50.067521l42.020955-7.450524a13.410943 13.410943 0 0 0 7.152502 9.23865l-29.802095 66.756694z m119.208382-63.776484a8.046566 8.046566 0 0 0 6.854482 0 9.23865 9.23865 0 0 0 4.470314-5.066356l10.430733 7.152503 8.642608 5.960419-39.338766 18.477299z m16.391152-4.470314l-4.470314-2.98021a10.430733 10.430733 0 0 0 0-8.344587 8.940629 8.940629 0 0 0-3.874272-3.576251l11.920838-31.2922 73.909197 18.77532a12.814901 12.814901 0 0 0 0 3.576251 16.987194 16.987194 0 0 0 0 5.364377l-61.690338 29.802096z m77.783469-17.583237a13.410943 13.410943 0 0 0 10.132713 7.152503v13.112922l-5.960419 53.04773-64.968568-45.001164z m-52.451688-85.532014l13.708964-34.868451a14.901048 14.901048 0 0 0 8.046566 0l34.868452 100.731082z m250.039581 35.464494l-183.580908-66.756694v-59.604191l40.828871-36.656577 145.136205 159.44121a7.450524 7.450524 0 0 0-2.384168 3.576252z m-184.772991-126.658906v-74.207217a10.132712 10.132712 0 0 0 6.556461-2.682189l35.464493 39.636787z m5.662398-77.783469a10.430733 10.430733 0 0 0 2.384167-6.556461 20.265425 20.265425 0 0 0 0-4.172293c22.649593-5.662398 78.08149-19.371362 106.393481-25.331781h4.172293a11.324796 11.324796 0 0 0 2.682189 5.364377l-79.273574 70.332945z m113.844004-38.742724H901.215367l-7.450524 1.788126-68.54482 16.987194a9.834692 9.834692 0 0 0-9.238649-5.662398h-1.788126l-3.576251-15.49709a9.536671 9.536671 0 0 0 2.682188 0 10.430733 10.430733 0 0 0 5.364377-8.642607h119.208382z m-125.168801 22.053551a10.132712 10.132712 0 0 0-7.152503 7.450524h-4.470314l5.066356-22.053551h2.98021z m-206.2305-65.266589l33.378347 40.232828h-2.384168l-48.875436-9.53667 7.748544-29.802096a12.814901 12.814901 0 0 0 10.132713-1.192083z m-11.324796 0l-19.073342 16.093131a14.603027 14.603027 0 0 0-10.132712-4.470314h-3.576251l-6.854482-32.186263 29.802095 5.066356a14.603027 14.603027 0 0 0 1.490105 8.642608 15.795111 15.795111 0 0 0 7.748545 6.25844z m-2.98021-24.437719a13.112922 13.112922 0 0 0-6.556461 9.23865l-29.802095-5.066356-21.159488-101.029104-16.093132-75.697322 43.809081 100.13504 29.802095 70.928988zM450.309662 140.069849a11.622817 11.622817 0 0 0 2.682189-6.854482 10.728754 10.728754 0 0 0-5.960419-10.728755l59.604191-104.009313 2.086146 1.788126z m-135.003492 143.6461l-9.23865 1.490105a14.305006 14.305006 0 0 0-3.576251-7.748545l9.23865-9.834692z m0 27.119907h-1.490105a14.603027 14.603027 0 0 0-6.556461 8.046565l-33.378347-8.642607 10.728755-13.112922a12.218859 12.218859 0 0 0 17.285215 0z m-116.824214-9.536671a11.026775 11.026775 0 0 0 5.066356-7.152503l67.650757 17.285216-70.928988 85.233993-14.901047 9.238649a12.218859 12.218859 0 0 0-5.364377 1.490105l-36.060536-53.345751 43.213038-52.749709a11.026775 11.026775 0 0 0 11.324797 0z m-35.464494 83.445867l15.199069 23.245635a9.834692 9.834692 0 0 0-3.278231 4.470314l-149.010477 91.492433-1.192084-2.384167 92.088475-112.949942 27.119907-33.378347zM28.610012 515.576251l28.013969 3.874273 107.287544 33.974389-34.570431 86.128056-15.199068-18.775321-89.406287-98.942956a11.622817 11.622817 0 0 0 3.874273-6.258441z m113.247962 96.856811l23.543656-59.604191 20.265425 6.556461c1.490105 3.874272 3.278231 7.748545 5.066356 11.920838 6.556461 15.49709 14.901048 33.378347 22.947613 51.259604l-42.915017 44.107101-2.086147 2.086147a11.324796 11.324796 0 0 0-6.25844-2.086147 9.536671 9.536671 0 0 0-5.662398 2.086147l-27.417928-29.802095z m74.505239 13.410943l20.861467-21.457509 7.748545-8.046566a14.901048 14.901048 0 0 0 9.238649 3.576252l2.682189 92.684516a14.006985 14.006985 0 0 0-9.834692 0c-9.23865-19.967404-20.265425-43.80908-30.696158-66.756693z m39.040745-26.523865a8.344587 8.344587 0 0 0 3.874273 0l23.245634 50.663562c-9.23865 17.583236-17.285215 33.378347-22.649593 44.107101h-1.490104z m29.802096 49.769499c6.854482-12.814901 14.006985-26.821886 21.755529-41.126892l29.802096 12.814901 100.731082 42.020955a14.901048 14.901048 0 0 0 0 3.576251 10.728754 10.728754 0 0 0 5.066357 8.940629l-8.344587 14.603027-124.274738 13.112922z m149.010477 42.616997l-65.862631 117.420256h-3.278231a9.834692 9.834692 0 0 0-5.662398 1.788125l-47.981373-105.797438z m-73.611176 137.089639l-29.802095 34.57043 27.417927-35.464493z m114.440047 0l64.074505 5.662398-56.325961 25.629802a10.132712 10.132712 0 0 0-11.026775-4.470314z m75.697322 19.967404h2.086147a14.006985 14.006985 0 0 0 11.324796-5.960419l33.080326 16.987194-23.245634 42.318976-55.431898 99.538998z m14.006985-6.854482a13.410943 13.410943 0 0 0 2.086147-6.854482 13.410943 13.410943 0 0 0-3.576252-8.940629l59.604191-26.821886a15.49709 15.49709 0 0 0 5.066356 4.768336c-5.066356 8.642608-14.006985 25.03376-29.802095 55.133876z m59.604191-59.604191l-33.378347-20.563446 21.159488-47.683353 17.583236 64.074505h-3.27823a12.218859 12.218859 0 0 0-4.172294 5.96042z m-10.132713-72.121071l29.802096-67.948778a12.218859 12.218859 0 0 0 4.768335 0h4.172294l17.881257 47.981374-29.802096 87.618161a13.708964 13.708964 0 0 0-7.748544 0z m59.604191-19.669383l13.112922-37.55064 17.285216 11.026775 71.525029 45.001164-77.783469 47.385332z m13.410943-38.742724l16.987195-48.577416 41.126891-19.669383 66.160652 45.895227-6.25844 61.690338-29.802095 17.285215z m119.208382 40.82887l-2.086147 21.75553a10.430733 10.430733 0 0 0-8.642607 4.768335l-15.795111-10.132712z m47.981374-41.722933l-29.802096-89.406287a10.132712 10.132712 0 0 0 4.172294-1.490104c6.556461 11.026775 20.563446 34.27241 49.769499 81.657741l-12.814901 11.920838a11.622817 11.622817 0 0 0-15.49709-0.894062z m-25.629802-91.790454a13.708964 13.708964 0 0 0 6.25844-11.324796v-2.086147l98.346915-18.77532 71.82305-13.708964a12.814901 12.814901 0 0 0 3.27823 5.960419l-134.40745 123.082654c-21.457509-35.166473-40.53085-66.160652-49.471479-81.35972z m114.738067-306.663562a9.23865 9.23865 0 0 0-2.384167 4.470314h-119.208382a8.642608 8.642608 0 0 0 0-4.768335 10.728754 10.728754 0 0 0-11.324796-5.066357l-40.828871-154.374854h3.27823l2.086147-1.788126z m-136.195576-5.96042h-2.086147a10.430733 10.430733 0 0 0-4.768335 5.96042l-188.647264-42.616997a8.046566 8.046566 0 0 0 0-2.682189l68.544819-56.623981 82.551805-59.604191a12.218859 12.218859 0 0 0 5.662398 0z m-53.643772-160.335273l-75.399301 63.180442-69.140862 49.173458a13.410943 13.410943 0 0 0-15.497089-4.172294L520.344587 21.75553a11.622817 11.622817 0 0 0 4.768335-5.960419l225.303842 59.604191a5.662398 5.662398 0 0 0 0 2.086146 13.708964 13.708964 0 0 0 3.27823 8.642608zM506.337602 17.881257l-60.498254 104.605355a12.51688 12.51688 0 0 0-3.874272 0 10.728754 10.728754 0 0 0-10.132713 6.854482l-55.431897-16.987194-96.856811-29.802096v-2.980209a4.172293 4.172293 0 0 0 0-1.788126l226.495926-59.604191a10.728754 10.728754 0 0 0 0.298021-0.298021z m-194.905704 248.251455l-9.834692 10.430734a14.305006 14.305006 0 0 0-9.23865-3.576252l-15.79511-168.381839z m-27.417928-61.094295l6.556461 68.246798a14.006985 14.006985 0 0 0-11.622817 11.324797l-78.379512-9.536671 59.604191-182.090803a12.51688 12.51688 0 0 0 10.728755 0v3.874272zM91.194412 267.324796l22.947614 4.172294 69.140861 17.583236a11.920838 11.920838 0 0 0 0 8.344587l2.384168 2.682188-41.722934 52.749709-33.080326-49.471478-21.75553-31.888242a10.728754 10.728754 0 0 0 2.086147-4.172294z m52.749709 86.724098l-119.208382 146.924331s-1.788126-1.788126-3.27823-2.086147l59.604191-225.303842a11.026775 11.026775 0 0 0 6.854482 0H89.406286z m-12.51688 287.888242l26.821886 29.802096a10.430733 10.430733 0 0 0-3.874273 8.046565 9.834692 9.834692 0 0 0 2.384168 6.556461l-16.689173 16.987195-49.173458 50.663562a7.152503 7.152503 0 0 0-6.556461-1.490105z m53.345751 87.022119l56.027939-19.073341v2.086147a13.112922 13.112922 0 0 0 10.728755 6.556461l10.430733 212.48894z m78.379511 202.356228l-10.728754-212.786961a17.285215 17.285215 0 0 0 5.364377 0l3.576251 123.976717 2.682189 89.406286z m-4.172293-212.786961a13.112922 13.112922 0 0 0 5.960419-7.450524l42.616996-4.470315 48.577416 106.09546a11.026775 11.026775 0 0 0-4.172294 8.344587 10.430733 10.430733 0 0 0 3.874273 8.046566l-50.067521 64.670547-34.57043 41.424913a14.305006 14.305006 0 0 0-5.960419-2.086147z m24.437718 204.442374l-10.430734 13.410943z m220.535506 87.022119l-225.303841-59.604191a8.642608 8.642608 0 0 0 0-2.682188 13.708964 13.708964 0 0 0 0-5.960419l137.983702-52.153668 91.194412 116.228173a11.920838 11.920838 0 0 0-3.874273 2.682188z m-87.022119-120.996507l44.405123-16.689174a10.132712 10.132712 0 0 0 11.622817 4.768335l36.954598 125.466822z m106.691502 119.208381a9.834692 9.834692 0 0 0-3.874272-3.874272c22.053551-40.828871 52.749709-97.452852 76.591385-140.963912l154.672876 79.571595a16.987194 16.987194 0 0 0 0 5.364378l-225.601863 59.60419-1.788126-1.788125z m73.313155-146.030267l29.802096-55.431898a13.112922 13.112922 0 0 0 12.814901 0 3.576251 3.576251 0 0 0 1.490104-1.490105l59.604191 67.948778 54.537835 63.478463a18.477299 18.477299 0 0 0-3.278231 5.066357z m162.123399 71.525029l-63.478463-172.256112 78.379511-47.683353 16.391153 10.132713a10.132712 10.132712 0 0 0-1.490105 5.066356 10.728754 10.728754 0 0 0 8.344587 10.430733l-25.629803 157.951106-5.960419 35.464494z m40.53085-196.097788a10.430733 10.430733 0 0 0 10.132713-7.450524l20.563446 4.768335-62.28638 196.097788z m80.465658-51.557626l-16.987194-17.881257a10.728754 10.728754 0 0 0 0-10.728754l12.814901-11.920838c2.682189 4.470314 5.364377 8.642608 8.046565 13.410943l55.133877 89.406286c-16.391153-16.987194-41.424913-42.915017-59.902212-62.28638z m132.023283-187.753201l-59.604191-226.495925zM561.173458 23.841676L526.006985 14.305006zM504.847497 14.006985l-226.495925 59.604191zM18.179278 526.006985l59.604191 226.495925zM89.406286 770.682189l33.378347 33.378347L89.406286 770.682189z m435.408615 238.416763l225.601863-59.604191z" fill="#d4237a" p-id="23098"></path></svg>