<?xml version="1.0" standalone="no"?><!DOCTYPE svg PUBLIC "-//W3C//DTD SVG 1.1//EN" "http://www.w3.org/Graphics/SVG/1.1/DTD/svg11.dtd"><svg t="1740993024559" class="icon" viewBox="0 0 1024 1024" version="1.1" xmlns="http://www.w3.org/2000/svg" p-id="21436" xmlns:xlink="http://www.w3.org/1999/xlink" width="200" height="200"><path d="M880.447366 93.244832a41.18305 41.18305 0 1 1-39.185742 53.856317h-33.42701L650.280554 307.2a12.673267 12.673267 0 0 1-7.583683 3.700594l-1.439683 0.091248h-18.928792v45.897505h50.47002l109.395643-103.413862a12.673267 12.673267 0 0 1 7.330218-3.386297l1.378852-0.081109h48.736317a41.18305 41.18305 0 1 1 4.704316 25.356673h-48.411881l-109.395643 103.413862a12.673267 12.673267 0 0 1-7.32008 3.396436l-1.378851 0.07097h-55.508911v38.780198H729.574653l52.953981-46.698456a12.673267 12.673267 0 0 1 6.853703-3.082138l1.520792-0.101386h49.577821c4.481267-16.596911 20.926099-28.489505 39.976555-28.489505 22.406337 0 41.18305 16.424554 41.183049 37.614257 0 21.169426-18.786851 37.614257-41.183049 37.614258-16.201505 0-30.517228-8.617822-37.188436-21.392476h-47.570376l-52.933703 46.718733a12.673267 12.673267 0 0 1-6.853703 3.082139l-1.530931 0.091247h-112.031683v45.907644h218.923089a41.193188 41.193188 0 0 1 80.368792 12.673267 41.172911 41.172911 0 0 1-80.368792 12.673267H622.328396v45.907644h112.031683c3.092277 0 6.083168 1.135525 8.394772 3.173386l52.943842 46.718733h45.562931a41.193188 41.193188 0 0 1 80.368792 12.673267 41.172911 41.172911 0 0 1-80.368792 12.673267h-50.358495a12.673267 12.673267 0 0 1-8.384634-3.173386l-52.943842-46.708594H622.328396v31.652753h55.508911c3.376158 0 6.620515 1.358574 8.99295 3.751287L796.185347 734.583129h45.086415a41.193188 41.193188 0 0 1 80.368792 12.673267 41.172911 41.172911 0 0 1-80.368792 12.683406h-50.358495a12.673267 12.673267 0 0 1-9.003089-3.751287L672.555089 645.92095h-50.226693v45.897505l18.928792 0.010139c3.487683 0 6.823287 1.439683 9.226139 3.984475l157.513505 167.033664h32.484118c4.481267-16.596911 20.91596-28.489505 39.966416-28.489505 22.406337 0 41.18305 16.434693 41.18305 37.614257s-18.786851 37.614257-41.18305 37.614258c-16.201505 0-30.517228-8.607683-37.188435-21.382337h-40.716674a12.673267 12.673267 0 0 1-9.226138-3.974337L635.792475 717.175129h-13.464079v51.463604c0 6.995644-5.667485 12.673267-12.673267 12.673267h-71.254179c-6.995644 0-12.673267-5.677624-12.673267-12.673267v-72.845941h-68.506614c-5.505267 28.357703-29.118099 49.892119-57.77996 49.892119-15.613465 0-29.746693-6.397465-40.250297-16.819961L220.514851 842.336317a66.002376 66.002376 0 0 1 2.757703 18.949069c0 34.339485-26.198178 62.555248-59.006732 62.555248-32.788277 0-58.986455-28.215762-58.986456-62.555248 0-34.349624 26.198178-62.555248 58.996594-62.555247 17.560079 0 33.224238 8.080475 44.001585 20.865267l136.851009-111.98099a64.968238 64.968238 0 0 1-3.477544-11.811485H222.066059c-5.505267 28.347564-29.118099 49.88198-57.790099 49.88198-32.788277 0-58.986455-28.205624-58.986455-62.555248s26.198178-62.555248 58.996594-62.555247c17.560079 0 33.224238 8.090614 44.001584 20.865267l53.552159-43.829228-56.776238-46.434851a58.996594 58.996594 0 1 1-4.217663-88.915644l60.993901-49.932673-56.766099-46.44499a58.996594 58.996594 0 1 1 17.499247-51.727208H341.164356a58.570772 58.570772 0 0 1 5.373466-16.982178l-145.215367-99.003564a58.996594 58.996594 0 1 1 15.897347-19.841268l145.215366 99.003565a59.016871 59.016871 0 0 1 93.751763 29.685861h69.550891v-79.953109c0-6.995644 5.677624-12.673267 12.673267-12.673267h71.264317c6.995644 0 12.673267 5.677624 12.673267 12.673267v58.580911h13.616159l157.554059-160.10899a12.673267 12.673267 0 0 1 7.583683-3.700594l1.449822-0.081109h38.719366a41.193188 41.193188 0 0 1 39.185743-28.509782zM164.286099 824.066535c-18.36103 0-33.650059 16.465109-33.650059 37.208713 0 20.753743 15.28903 37.208713 33.650059 37.208712s33.650059-16.45497 33.650059-37.208712c0-20.743604-15.28903-37.208713-33.660198-37.208713z m716.161267 35.637227c-9.084198 0-15.826376 5.890535-15.826376 12.267723 0 6.36705 6.742178 12.267723 15.826376 12.267723 9.094337 0 15.836515-5.900673 15.836515-12.267723 0-6.377188-6.742178-12.267723-15.836515-12.267723z m0-128.273742a15.836515 15.836515 0 1 0 0 31.662891 15.836515 15.836515 0 0 0 0-31.662891zM596.981861 239.737663h-45.907643v516.227802h45.907643V239.737663zM164.286099 645.92095c-18.36103 0-33.650059 16.45497-33.650059 37.208713 0 20.753743 15.28903 37.208713 33.650059 37.208713s33.650059-16.45497 33.650059-37.208713c0-20.753743-15.28903-37.208713-33.660198-37.208713z m235.15501 0c-18.36103 0-33.639921 16.45497-33.639921 37.208713 0 20.753743 15.278891 37.208713 33.639921 37.208713 18.371168 0 33.650059-16.45497 33.650059-37.208713 0-20.753743-15.278891-37.208713-33.650059-37.208713zM281.853465 613.994455l-61.338614 50.196278c0.608317 2.048 1.135525 4.136554 1.551208 6.265663H341.671287c0.405545-2.129109 0.922614-4.217663 1.541069-6.255525L281.853465 613.984317z m243.86408-281.620277l-67.979406 0.010139a59.006733 59.006733 0 0 1-99.084674 33.508119l-56.776237 46.455128 61.004039 49.912396a58.996594 58.996594 0 1 1-4.217663 88.915644l-56.796515 46.44499 53.582574 43.839366c10.767208-12.784792 26.431366-20.875406 44.001585-20.875406 28.651723 0 52.264554 21.534416 57.769821 49.881981h68.496476V332.353901z m354.729821 277.929822a15.826376 15.826376 0 1 0 0 31.662891 15.826376 15.826376 0 0 0 0-31.662891z m-598.583762-181.582574l-64.94796 53.146614c4.065584 8.009505 6.36705 17.083564 6.367049 26.684831 0 7.573545-1.429545 14.822653-4.035168 21.473584L281.853465 581.246733l62.626218-51.230416a58.844515 58.844515 0 0 1-4.02503-21.463446c0-9.601267 2.291327-18.675327 6.36705-26.684831L281.853465 428.711287zM164.27596 474.892673a33.650059 33.650059 0 1 0 0 67.300119 33.650059 33.650059 0 0 0 0-67.300119z m235.15501 0a33.650059 33.650059 0 1 0 0 67.28998 33.650059 33.650059 0 0 0 0-67.28998z m481.006258 14.254891a15.826376 15.826376 0 1 0 0 31.662891 15.826376 15.826376 0 0 0 0-31.662891z m-537.731802-149.64594H221.011644c-0.506931 1.784396-1.09497 3.528238-1.764119 5.231525l62.60594 51.220277 62.626218-51.220277a58.540356 58.540356 0 0 1-1.764119-5.231525z m537.731802 28.499643c-9.084198 0-15.826376 5.900673-15.826377 12.267723 0 6.377188 6.742178 12.267723 15.826377 12.267723 9.094337 0 15.836515-5.890535 15.836515-12.267723 0-6.36705-6.742178-12.267723-15.836515-12.267723z m-716.161268-78.381623a33.650059 33.650059 0 1 0 0 67.28998 33.650059 33.650059 0 0 0 0-67.28998z m235.15501 0a33.650059 33.650059 0 1 0 0 67.28998 33.650059 33.650059 0 0 0 0-67.28998z m481.006258-49.881981a15.836515 15.836515 0 1 0 0 31.662891 15.836515 15.836515 0 0 0 0-31.662891zM164.286099 118.591366a33.650059 33.650059 0 1 0 0 67.300119 33.650059 33.650059 0 0 0 0-67.300119z m716.161267 0a15.836515 15.836515 0 1 0 0 31.662891 15.836515 15.836515 0 0 0 0-31.662891z" p-id="21437" fill="#2c2c2c"></path></svg>